<svg xmlns="http://www.w3.org/2000/svg" viewBox="0 0 600 600" style="background-color: transparent;">
    <defs>
        <!-- Gradients for 3D effect -->
        <radialGradient id="mainGradient" cx="30%" cy="30%">
            <stop offset="0%" style="stop-color:#FFE5E5;stop-opacity:1" />
            <stop offset="70%" style="stop-color:#FFB8B8;stop-opacity:1" />
            <stop offset="100%" style="stop-color:#FF9999;stop-opacity:1" />
        </radialGradient>

        <radialGradient id="topGradient" cx="40%" cy="40%">
            <stop offset="0%" style="stop-color:#FFF0F0;stop-opacity:1" />
            <stop offset="100%" style="stop-color:#FFD4D4;stop-opacity:1" />
        </radialGradient>

        <radialGradient id="accentGradient1" cx="30%" cy="30%">
            <stop offset="0%" style="stop-color:#E8F5E9;stop-opacity:1" />
            <stop offset="100%" style="stop-color:#A5D6A7;stop-opacity:1" />
        </radialGradient>

        <radialGradient id="accentGradient2" cx="30%" cy="30%">
            <stop offset="0%" style="stop-color:#FFF9C4;stop-opacity:1" />
            <stop offset="100%" style="stop-color:#FFE082;stop-opacity:1" />
        </radialGradient>

        <!-- Shadow -->
        <filter id="shadow">
            <feGaussianBlur in="SourceAlpha" stdDeviation="8"/>
            <feOffset dx="0" dy="15" result="offsetblur"/>
            <feFlood flood-color="#000000" flood-opacity="0.15"/>
            <feComposite in2="offsetblur" operator="in"/>
            <feMerge>
                <feMergeNode/>
                <feMergeNode in="SourceGraphic"/>
            </feMerge>
        </filter>

        <!-- Soft blur for highlights -->
        <filter id="softGlow">
            <feGaussianBlur stdDeviation="2"/>
        </filter>
    </defs>

    <!-- Shadow on ground -->
    <ellipse cx="300" cy="480" rx="120" ry="30" fill="#000000" opacity="0.1" filter="url(#softGlow)"/>

    <!-- Main body - Korean drum (북) inspired shape -->
    <g transform="rotate(-5, 300, 300)" filter="url(#shadow)">
        <!-- Bottom face -->
        <ellipse cx="300" cy="380" rx="100" ry="25" fill="#FF9999"/>

        <!-- Main cylindrical body -->
        <path d="M 200 380 Q 200 300, 200 250 Q 200 220, 220 210 L 380 210 Q 400 220, 400 250 Q 400 300, 400 380 Q 350 395, 300 395 Q 250 395, 200 380 Z"
              fill="url(#mainGradient)"/>

        <!-- Top face -->
        <ellipse cx="300" cy="250" rx="100" ry="35" fill="url(#topGradient)"/>

        <!-- Traditional pattern band -->
        <rect x="200" y="290" width="200" height="40" fill="#FFB8B8" opacity="0.3"/>

        <!-- Decorative elements -->
        <g>
            <!-- Small circles representing 단청 patterns -->
            <circle cx="250" cy="310" r="8" fill="url(#accentGradient1)"/>
            <circle cx="300" cy="310" r="8" fill="url(#accentGradient2)"/>
            <circle cx="350" cy="310" r="8" fill="url(#accentGradient1)"/>
        </g>

        <!-- Code symbol on top - stylized as traditional pattern -->
        <g transform="translate(300, 250)">
            <!-- Brackets in Korean calligraphy style -->
            <path d="M -30 -10 Q -35 0, -30 10" fill="none" stroke="#FF6666" stroke-width="4" stroke-linecap="round"/>
            <path d="M 30 -10 Q 35 0, 30 10" fill="none" stroke="#FF6666" stroke-width="4" stroke-linecap="round"/>

            <!-- Center dot -->
            <circle cx="0" cy="0" r="5" fill="#FF6666"/>
        </g>

        <!-- Soft highlight -->
        <ellipse cx="260" cy="240" rx="30" ry="15" fill="#FFFFFF" opacity="0.4" filter="url(#softGlow)"/>

        <!-- Side highlights for 3D effect -->
        <path d="M 200 250 Q 200 300, 200 350 L 210 350 Q 210 300, 210 250 Z"
              fill="#FFFFFF" opacity="0.2"/>
    </g>

    <!-- Small floating elements -->
    <g opacity="0.6">
        <!-- Traditional cloud pattern -->
        <path d="M 450 150 Q 460 140, 470 150 Q 480 140, 490 150"
              fill="none" stroke="#FFD4D4" stroke-width="3" stroke-linecap="round"/>

        <!-- Small decorative circles -->
        <circle cx="150" cy="200" r="15" fill="url(#accentGradient2)" opacity="0.5"/>
        <circle cx="480" cy="380" r="12" fill="url(#accentGradient1)" opacity="0.5"/>
    </g>
</svg>